:FULLY-SPECIFIED
:FORCE-ALL-JOINTS-BE-3DOF
:DEGREES
340
root 8.13452 16.0899 -20.3058 10.7927 22.6277 3.61664
lfemur -7.93836 13.5301 -9.21084
ltibia 40.6298 0 0
lfoot 9.17745 26.4806 0
ltoes -23.4772 0 0
rfemur -49.1581 -16.4671 15.4413
rtibia 55.3813 0 0
rfoot 1.56544 -14.348 0
rtoes -8.69831 0 0
lowerback -0.938059 -1.72486 -1.50246
upperback 1.73273 -2.31083 -0.0838977
thorax 2.37102 -1.17306 0.696363
lowerneck -6.03099 -8.25991 -0.697082
upperneck -1.59334 -11.0186 6.7688
head 0.965555 -5.42784 1.91441
lclavicle -4.45245e-14 7.541e-15 0
lhumerus -48.0403 -33.0625 108.647
lradius 56.8763 0 0
lwrist 21.5396 0 0
lhand 5.51901 11.8484 0
lfingers 7.12502 0 0
lthumb 30.8616 39.2464 0
rclavicle -4.45245e-14 7.541e-15 0
rhumerus -24.399 20.2737 -75.8806
rradius 84.47 0 0
rwrist 1.39516 0 0
rhand -1.9709 -13.237 0
rfingers 7.12502 0 0
rthumb 23.6928 -761.716 0
341
root 8.10855 16.1093 -20.1896 10.7676 21.5895 3.28376
lfemur -7.6222 13.2775 -8.91063
ltibia 40.2889 0 0
lfoot 10.2221 28.113 0
ltoes -26.2189 0 0
rfemur -48.7769 -16.2603 14.6882
rtibia 55.2092 0 0
rfoot 1.27878 -15.5302 0
rtoes -8.26421 0 0
lowerback -1.31278 -1.6939 -1.28189
upperback 1.62225 -2.25098 0.0529406
thorax 2.45732 -1.1433 0.699849
lowerneck -6.04424 -8.19241 -0.668132
upperneck -1.50669 -10.9357 6.62648
head 0.978776 -5.3857 1.86437
lclavicle -4.46752e-14 7.74619e-15 0
lhumerus -48.1648 -32.6256 108.888
lradius 56.821 0 0
lwrist 21.6255 0 0
lhand 5.19864 11.8881 0
lfingers 7.12502 0 0
lthumb 30.5577 39.3576 0
rclavicle -4.46752e-14 7.74619e-15 0
rhumerus -24.9335 18.9484 -76.8447
rradius 84.7329 0 0
rwrist 1.61403 0 0
rhand -2.5566 -13.5714 0
rfingers 7.12502 0 0
rthumb 23.1351 -762.161 0
342
root 8.08257 16.1287 -20.0733 10.7424 20.5513 2.95088
lfemur -7.30604 13.0249 -8.61042
ltibia 39.9479 0 0
lfoot 11.2668 29.7453 0
ltoes -28.9607 0 0
rfemur -48.3957 -16.0535 13.9352
rtibia 55.0372 0 0
rfoot 0.992131 -16.7125 0
rtoes -7.8301 0 0
lowerback -1.6875 -1.66294 -1.06132
upperback 1.51176 -2.19113 0.189779
thorax 2.54362 -1.11354 0.703334
lowerneck -6.05749 -8.12491 -0.639183
upperneck -1.42004 -10.8528 6.48417
head 0.991996 -5.34355 1.81432
lclavicle -4.48259e-14 7.95139e-15 0
lhumerus -48.2894 -32.1888 109.13
lradius 56.7657 0 0
lwrist 21.7113 0 0
lhand 4.87827 11.9278 0
lfingers 7.12502 0 0
lthumb 30.2539 39.4688 0
rclavicle -4.48259e-14 7.95139e-15 0
rhumerus -25.468 17.623 -77.8089
rradius 84.9958 0 0
rwrist 1.83289 0 0
rhand -3.14231 -13.9058 0
rfingers 7.12502 0 0
rthumb 22.5774 -762.606 0
343
root 8.02327 16.1405 -19.9429 10.6978 19.3609 2.66149
lfemur -8.53812 13.3562 -8.75232
ltibia 40.9601 0 0
lfoot 10.5438 28.7034 0
ltoes -27.5834 0 0
rfemur -47.6581 -15.6694 14.4939
rtibia 54.6259 0 0
rfoot 0.275401 -16.1522 0
rtoes -7.00523 0 0
lowerback -1.46151 -1.56369 -0.918774
upperback 1.54889 -2.05492 0.219035
thorax 2.45632 -1.04429 0.652835
lowerneck -6.11954 -7.90607 -0.528545
upperneck -1.39841 -10.5701 6.34546
head 0.995274 -5.20375 1.76036
lclavicle -4.17335e-14 7.89368e-15 0
lhumerus -48.0328 -31.8995 108.681
lradius 56.7648 0 0
lwrist 21.6393 0 0
lhand 4.03322 11.6374 0
lfingers 7.12502 0 0
lthumb 29.4414 39.2552 0
rclavicle -4.17335e-14 7.89368e-15 0
rhumerus -25.8505 17.4585 -78.3113
rradius 84.2397 0 0
rwrist 2.07337 0 0
rhand -3.32439 -14.0852 0
rfingers 7.12502 0 0
rthumb 22.4024 -762.804 0
344
root 7.96397 16.1524 -19.8126 10.6531 18.1705 2.37209
lfemur -9.77021 13.6875 -8.89421
ltibia 41.9723 0 0
lfoot 9.82071 27.6614 0
ltoes -26.2061 0 0
rfemur -46.9205 -15.2852 15.0527
rtibia 54.2146 0 0
rfoot -0.441329 -15.5919 0
rtoes -6.18035 0 0
lowerback -1.23551 -1.46445 -0.776228
upperback 1.58601 -1.9187 0.248291
thorax 2.36902 -0.975046 0.602336
lowerneck -6.18158 -7.68722 -0.417908
upperneck -1.37677 -10.2874 6.20676
head 0.998551 -5.06394 1.70639
lclavicle -3.86411e-14 7.83597e-15 0
lhumerus -47.7761 -31.6102 108.233
lradius 56.764 0 0
lwrist 21.5674 0 0
lhand 3.18816 11.3471 0
lfingers 7.12502 0 0
lthumb 28.6289 39.0415 0
rclavicle -3.86411e-14 7.83597e-15 0
rhumerus -26.2329 17.294 -78.8136
rradius 83.4836 0 0
rwrist 2.31385 0 0
rhand -3.50648 -14.2645 0
rfingers 7.12502 0 0
rthumb 22.2273 -763.001 0
345
root 7.90468 16.1642 -19.6822 10.6085 16.9801 2.0827
lfemur -11.0023 14.0188 -9.03611
ltibia 42.9845 0 0
lfoot 9.09766 26.6195 0
ltoes -24.8288 0 0
rfemur -46.1829 -14.9011 15.6114
rtibia 53.8033 0 0
rfoot -1.15806 -15.0316 0
rtoes -5.35548 0 0
lowerback -1.00952 -1.3652 -0.633683
upperback 1.62314 -1.78249 0.277547
thorax 2.28172 -0.905799 0.551837
lowerneck -6.24363 -7.46838 -0.30727
upperneck -1.35514 -10.0047 6.06805
head 1.00183 -4.92414 1.65243
lclavicle -3.55487e-14 7.77825e-15 0
lhumerus -47.5195 -31.321 107.784
lradius 56.7631 0 0
lwrist 21.4954 0 0
lhand 2.34311 11.0567 0
lfingers 7.12502 0 0
lthumb 27.8165 38.8279 0
rclavicle -3.55487e-14 7.77825e-15 0
rhumerus -26.6154 17.1295 -79.316
rradius 82.7274 0 0
rwrist 2.55433 0 0
rhand -3.68856 -14.4439 0
rfingers 7.12502 0 0
rthumb 22.0523 -763.199 0
346
root 7.84538 16.176 -19.5518 10.5638 15.7897 1.79331
lfemur -12.2344 14.3501 -9.178
ltibia 43.9966 0 0
lfoot 8.37462 25.5775 0
ltoes -23.4515 0 0
rfemur -45.4454 -14.517 16.1701
rtibia 53.392 0 0
rfoot -1.87479 -14.4714 0
rtoes -4.5306 0 0
lowerback -0.783523 -1.26596 -0.491137
upperback 1.66027 -1.64628 0.306804
thorax 2.19443 -0.836552 0.501339
lowerneck -6.30568 -7.24954 -0.196633
upperneck -1.3335 -9.72197 5.92935
head 1.00511 -4.78434 1.59847
lclavicle -3.24564e-14 7.72054e-15 0
lhumerus -47.2629 -31.0317 107.336
lradius 56.7622 0 0
lwrist 21.4235 0 0
lhand 1.49805 10.7664 0
lfingers 7.12502 0 0
lthumb 27.004 38.6143 0
rclavicle -3.24564e-14 7.72054e-15 0
rhumerus -26.9978 16.9651 -79.8184
rradius 81.9713 0 0
rwrist 2.79481 0 0
rhand -3.87064 -14.6233 0
rfingers 7.12502 0 0
rthumb 21.8773 -763.396 0
